<mxfile host="app.diagrams.net" agent="Mozilla/5.0 (Windows NT 10.0; Win64; x64) AppleWebKit/537.36 (KHTML, like Gecko) Chrome/139.0.0.0 Safari/537.36" version="28.0.7">
  <diagram name="Page-1" id="_oAilhtV4cPBUMFtfc5y">
    <mxGraphModel dx="1744" dy="-154" grid="1" gridSize="10" guides="1" tooltips="1" connect="1" arrows="1" fold="1" page="1" pageScale="1" pageWidth="850" pageHeight="1100" math="0" shadow="0">
      <root>
        <mxCell id="0" />
        <mxCell id="1" parent="0" />
        <mxCell id="R9ZdVDWzcC7xUmS6zR7n-75" style="edgeStyle=orthogonalEdgeStyle;curved=1;rounded=0;orthogonalLoop=1;jettySize=auto;html=1;exitX=1;exitY=1;exitDx=0;exitDy=0;entryX=0.5;entryY=1;entryDx=0;entryDy=0;" parent="1" edge="1">
          <mxGeometry relative="1" as="geometry">
            <mxPoint x="758.3453390593266" y="1758.3953390593265" as="sourcePoint" />
            <mxPoint x="722.9900000000001" y="1773.0399999999997" as="targetPoint" />
            <Array as="points">
              <mxPoint x="757.9900000000001" y="1803.0399999999997" />
              <mxPoint x="722.9900000000001" y="1803.0399999999997" />
            </Array>
          </mxGeometry>
        </mxCell>
        <mxCell id="R9ZdVDWzcC7xUmS6zR7n-23" value="" style="shape=ext;double=1;rounded=0;whiteSpace=wrap;html=1;fillColor=#b0e3e6;strokeColor=#0e8088;" parent="1" vertex="1">
          <mxGeometry x="174" y="1361" width="210" height="60" as="geometry" />
        </mxCell>
        <mxCell id="R9ZdVDWzcC7xUmS6zR7n-8" value="&lt;b&gt;COUNTER&lt;/b&gt;" style="rounded=0;whiteSpace=wrap;html=1;" parent="1" vertex="1">
          <mxGeometry x="295.5" y="1375" width="77.5" height="32" as="geometry" />
        </mxCell>
        <mxCell id="R9ZdVDWzcC7xUmS6zR7n-32" style="edgeStyle=orthogonalEdgeStyle;rounded=0;orthogonalLoop=1;jettySize=auto;html=1;entryX=0;entryY=0.5;entryDx=0;entryDy=0;" parent="1" source="R9ZdVDWzcC7xUmS6zR7n-21" target="R9ZdVDWzcC7xUmS6zR7n-24" edge="1">
          <mxGeometry relative="1" as="geometry" />
        </mxCell>
        <mxCell id="R9ZdVDWzcC7xUmS6zR7n-21" value="" style="verticalLabelPosition=bottom;verticalAlign=top;html=1;shape=mxgraph.basic.layered_rect;dx=10;outlineConnect=0;whiteSpace=wrap;fillColor=#b1ddf0;strokeColor=#10739e;" parent="1" vertex="1">
          <mxGeometry x="435.5" y="1270" width="235" height="110" as="geometry" />
        </mxCell>
        <mxCell id="R9ZdVDWzcC7xUmS6zR7n-31" style="edgeStyle=orthogonalEdgeStyle;rounded=0;orthogonalLoop=1;jettySize=auto;html=1;entryX=0;entryY=0.5;entryDx=0;entryDy=0;fillColor=#b0e3e6;strokeColor=#0e8088;" parent="1" source="R9ZdVDWzcC7xUmS6zR7n-22" target="R9ZdVDWzcC7xUmS6zR7n-8" edge="1">
          <mxGeometry relative="1" as="geometry" />
        </mxCell>
        <mxCell id="R9ZdVDWzcC7xUmS6zR7n-22" value="&lt;b&gt;DRIVING LOGIC&lt;/b&gt;" style="rounded=0;whiteSpace=wrap;html=1;" parent="1" vertex="1">
          <mxGeometry x="184.5" y="1371" width="89.5" height="40" as="geometry" />
        </mxCell>
        <mxCell id="R9ZdVDWzcC7xUmS6zR7n-33" style="edgeStyle=orthogonalEdgeStyle;rounded=0;orthogonalLoop=1;jettySize=auto;html=1;entryX=0;entryY=0.5;entryDx=0;entryDy=0;" parent="1" source="R9ZdVDWzcC7xUmS6zR7n-24" target="R9ZdVDWzcC7xUmS6zR7n-27" edge="1">
          <mxGeometry relative="1" as="geometry" />
        </mxCell>
        <mxCell id="R9ZdVDWzcC7xUmS6zR7n-24" value="&lt;b&gt;STATE REGISTER&lt;/b&gt;" style="rounded=0;whiteSpace=wrap;html=1;fillColor=#b0e3e6;strokeColor=#0e8088;" parent="1" vertex="1">
          <mxGeometry x="758.25" y="1259" width="78.75" height="130" as="geometry" />
        </mxCell>
        <mxCell id="0XAeP3CfUMJxeDHche-L-25" style="edgeStyle=orthogonalEdgeStyle;rounded=0;orthogonalLoop=1;jettySize=auto;html=1;exitX=1;exitY=0.5;exitDx=0;exitDy=0;entryX=0.5;entryY=0;entryDx=0;entryDy=0;" edge="1" parent="1" source="R9ZdVDWzcC7xUmS6zR7n-27" target="0XAeP3CfUMJxeDHche-L-19">
          <mxGeometry relative="1" as="geometry">
            <Array as="points">
              <mxPoint x="1318" y="1324" />
            </Array>
          </mxGeometry>
        </mxCell>
        <mxCell id="0XAeP3CfUMJxeDHche-L-29" style="edgeStyle=orthogonalEdgeStyle;rounded=0;orthogonalLoop=1;jettySize=auto;html=1;exitX=1;exitY=0.5;exitDx=0;exitDy=0;entryX=0.5;entryY=0;entryDx=0;entryDy=0;" edge="1" parent="1" source="R9ZdVDWzcC7xUmS6zR7n-27" target="0XAeP3CfUMJxeDHche-L-9">
          <mxGeometry relative="1" as="geometry" />
        </mxCell>
        <mxCell id="0XAeP3CfUMJxeDHche-L-30" style="edgeStyle=orthogonalEdgeStyle;rounded=0;orthogonalLoop=1;jettySize=auto;html=1;exitX=1;exitY=0.5;exitDx=0;exitDy=0;entryX=0.5;entryY=0;entryDx=0;entryDy=0;" edge="1" parent="1" source="R9ZdVDWzcC7xUmS6zR7n-27" target="0XAeP3CfUMJxeDHche-L-11">
          <mxGeometry relative="1" as="geometry" />
        </mxCell>
        <mxCell id="0XAeP3CfUMJxeDHche-L-31" style="edgeStyle=orthogonalEdgeStyle;rounded=0;orthogonalLoop=1;jettySize=auto;html=1;exitX=1;exitY=0.5;exitDx=0;exitDy=0;entryX=0.5;entryY=0;entryDx=0;entryDy=0;" edge="1" parent="1" source="R9ZdVDWzcC7xUmS6zR7n-27" target="0XAeP3CfUMJxeDHche-L-15">
          <mxGeometry relative="1" as="geometry" />
        </mxCell>
        <mxCell id="R9ZdVDWzcC7xUmS6zR7n-27" value="&lt;b&gt;&lt;font style=&quot;font-size: 14px;&quot;&gt;OUTPUT LOGIC&lt;/font&gt;&lt;/b&gt;" style="rounded=0;whiteSpace=wrap;html=1;fillColor=#b0e3e6;strokeColor=#0e8088;" parent="1" vertex="1">
          <mxGeometry x="887" y="1289" width="130" height="70" as="geometry" />
        </mxCell>
        <mxCell id="R9ZdVDWzcC7xUmS6zR7n-28" value="&lt;b&gt;&lt;font style=&quot;font-size: 14px;&quot;&gt;INPUT SWITCHES&lt;/font&gt;&lt;/b&gt;" style="text;html=1;align=center;verticalAlign=middle;whiteSpace=wrap;rounded=0;" parent="1" vertex="1">
          <mxGeometry x="208.5" y="1240" width="131" height="30" as="geometry" />
        </mxCell>
        <mxCell id="R9ZdVDWzcC7xUmS6zR7n-37" value="&lt;b&gt;&lt;font style=&quot;font-size: 14px;&quot;&gt;NEXT STATE LOGIC&lt;/font&gt;&lt;/b&gt;" style="text;html=1;align=center;verticalAlign=middle;whiteSpace=wrap;rounded=0;" parent="1" vertex="1">
          <mxGeometry x="489" y="1310" width="113" height="30" as="geometry" />
        </mxCell>
        <mxCell id="R9ZdVDWzcC7xUmS6zR7n-38" style="edgeStyle=orthogonalEdgeStyle;rounded=0;orthogonalLoop=1;jettySize=auto;html=1;entryX=0;entryY=0;entryDx=178.75;entryDy=110;entryPerimeter=0;" parent="1" edge="1">
          <mxGeometry relative="1" as="geometry">
            <mxPoint x="862" y="1330" as="sourcePoint" />
            <mxPoint x="609.25" y="1380" as="targetPoint" />
            <Array as="points">
              <mxPoint x="862" y="1325" />
              <mxPoint x="862" y="1430" />
              <mxPoint x="609" y="1430" />
            </Array>
          </mxGeometry>
        </mxCell>
        <mxCell id="R9ZdVDWzcC7xUmS6zR7n-48" style="edgeStyle=orthogonalEdgeStyle;rounded=0;orthogonalLoop=1;jettySize=auto;html=1;entryX=0.5;entryY=0;entryDx=0;entryDy=0;curved=1;" parent="1" source="R9ZdVDWzcC7xUmS6zR7n-46" target="R9ZdVDWzcC7xUmS6zR7n-47" edge="1">
          <mxGeometry relative="1" as="geometry" />
        </mxCell>
        <mxCell id="R9ZdVDWzcC7xUmS6zR7n-56" style="edgeStyle=orthogonalEdgeStyle;rounded=0;orthogonalLoop=1;jettySize=auto;html=1;exitX=0.315;exitY=0.982;exitDx=0;exitDy=0;entryX=0.318;entryY=0.038;entryDx=0;entryDy=0;entryPerimeter=0;exitPerimeter=0;" parent="1" edge="1">
          <mxGeometry relative="1" as="geometry">
            <mxPoint x="721.4900000000001" y="1583.2400000000002" as="sourcePoint" />
            <mxPoint x="721.7900000000001" y="1678.8400000000001" as="targetPoint" />
          </mxGeometry>
        </mxCell>
        <mxCell id="R9ZdVDWzcC7xUmS6zR7n-64" style="edgeStyle=orthogonalEdgeStyle;curved=1;rounded=0;orthogonalLoop=1;jettySize=auto;html=1;exitX=0;exitY=1;exitDx=0;exitDy=0;entryX=1;entryY=0;entryDx=0;entryDy=0;" parent="1" source="R9ZdVDWzcC7xUmS6zR7n-46" target="R9ZdVDWzcC7xUmS6zR7n-51" edge="1">
          <mxGeometry relative="1" as="geometry" />
        </mxCell>
        <mxCell id="R9ZdVDWzcC7xUmS6zR7n-46" value="&lt;b&gt;STATE A&lt;/b&gt;&lt;div&gt;A = GREEN&amp;nbsp;&lt;/div&gt;&lt;div&gt;Rest are RED&lt;/div&gt;" style="ellipse;whiteSpace=wrap;html=1;aspect=fixed;fillColor=#b0e3e6;strokeColor=#0e8088;" parent="1" vertex="1">
          <mxGeometry x="689.9900000000001" y="1486.04" width="100" height="100" as="geometry" />
        </mxCell>
        <mxCell id="R9ZdVDWzcC7xUmS6zR7n-55" style="edgeStyle=orthogonalEdgeStyle;rounded=0;orthogonalLoop=1;jettySize=auto;html=1;exitX=0;exitY=1;exitDx=0;exitDy=0;entryX=0.962;entryY=0.685;entryDx=0;entryDy=0;entryPerimeter=0;" parent="1" target="R9ZdVDWzcC7xUmS6zR7n-51" edge="1">
          <mxGeometry relative="1" as="geometry">
            <mxPoint x="885.6346609406754" y="1644.3953390593242" as="sourcePoint" />
            <mxPoint x="595.3453390593289" y="1644.3953390593288" as="targetPoint" />
          </mxGeometry>
        </mxCell>
        <mxCell id="R9ZdVDWzcC7xUmS6zR7n-66" style="edgeStyle=orthogonalEdgeStyle;curved=1;rounded=0;orthogonalLoop=1;jettySize=auto;html=1;exitX=0;exitY=0;exitDx=0;exitDy=0;entryX=1;entryY=1;entryDx=0;entryDy=0;" parent="1" source="R9ZdVDWzcC7xUmS6zR7n-47" target="R9ZdVDWzcC7xUmS6zR7n-46" edge="1">
          <mxGeometry relative="1" as="geometry" />
        </mxCell>
        <mxCell id="R9ZdVDWzcC7xUmS6zR7n-47" value="&lt;b&gt;STATE B&lt;/b&gt;&lt;div&gt;B = GREEN&amp;nbsp;&lt;/div&gt;&lt;div&gt;Rest are RED&lt;/div&gt;" style="ellipse;whiteSpace=wrap;html=1;aspect=fixed;fillColor=#b0e3e6;strokeColor=#0e8088;" parent="1" vertex="1">
          <mxGeometry x="870.9900000000001" y="1576.04" width="100" height="100" as="geometry" />
        </mxCell>
        <mxCell id="R9ZdVDWzcC7xUmS6zR7n-52" style="edgeStyle=orthogonalEdgeStyle;rounded=0;orthogonalLoop=1;jettySize=auto;html=1;entryX=0.5;entryY=1;entryDx=0;entryDy=0;curved=1;" parent="1" source="R9ZdVDWzcC7xUmS6zR7n-49" target="R9ZdVDWzcC7xUmS6zR7n-51" edge="1">
          <mxGeometry relative="1" as="geometry" />
        </mxCell>
        <mxCell id="R9ZdVDWzcC7xUmS6zR7n-57" style="edgeStyle=orthogonalEdgeStyle;rounded=0;orthogonalLoop=1;jettySize=auto;html=1;exitX=0.681;exitY=0.031;exitDx=0;exitDy=0;entryX=0.677;entryY=0.968;entryDx=0;entryDy=0;entryPerimeter=0;exitPerimeter=0;" parent="1" source="R9ZdVDWzcC7xUmS6zR7n-49" target="R9ZdVDWzcC7xUmS6zR7n-46" edge="1">
          <mxGeometry relative="1" as="geometry">
            <mxPoint x="758.3453390593269" y="1690.6846609406734" as="sourcePoint" />
            <mxPoint x="758.3453390593269" y="1571.395339059327" as="targetPoint" />
          </mxGeometry>
        </mxCell>
        <mxCell id="R9ZdVDWzcC7xUmS6zR7n-68" style="edgeStyle=orthogonalEdgeStyle;curved=1;rounded=0;orthogonalLoop=1;jettySize=auto;html=1;exitX=1;exitY=0;exitDx=0;exitDy=0;entryX=0;entryY=1;entryDx=0;entryDy=0;" parent="1" source="R9ZdVDWzcC7xUmS6zR7n-49" target="R9ZdVDWzcC7xUmS6zR7n-47" edge="1">
          <mxGeometry relative="1" as="geometry" />
        </mxCell>
        <mxCell id="R9ZdVDWzcC7xUmS6zR7n-49" value="&lt;b&gt;STATE C&lt;/b&gt;&lt;div&gt;B = GREEN&amp;nbsp;&lt;/div&gt;&lt;div&gt;Rest are RED&lt;/div&gt;" style="ellipse;whiteSpace=wrap;html=1;aspect=fixed;fillColor=#b0e3e6;strokeColor=#0e8088;" parent="1" vertex="1">
          <mxGeometry x="689.9900000000001" y="1676.04" width="100" height="100" as="geometry" />
        </mxCell>
        <mxCell id="R9ZdVDWzcC7xUmS6zR7n-50" style="edgeStyle=orthogonalEdgeStyle;rounded=0;orthogonalLoop=1;jettySize=auto;html=1;entryX=0.948;entryY=0.528;entryDx=0;entryDy=0;entryPerimeter=0;exitX=0.5;exitY=1;exitDx=0;exitDy=0;curved=1;" parent="1" source="R9ZdVDWzcC7xUmS6zR7n-47" target="R9ZdVDWzcC7xUmS6zR7n-49" edge="1">
          <mxGeometry relative="1" as="geometry" />
        </mxCell>
        <mxCell id="R9ZdVDWzcC7xUmS6zR7n-53" style="edgeStyle=orthogonalEdgeStyle;rounded=0;orthogonalLoop=1;jettySize=auto;html=1;entryX=0;entryY=0.5;entryDx=0;entryDy=0;exitX=0.5;exitY=0;exitDx=0;exitDy=0;curved=1;" parent="1" source="R9ZdVDWzcC7xUmS6zR7n-51" target="R9ZdVDWzcC7xUmS6zR7n-46" edge="1">
          <mxGeometry relative="1" as="geometry" />
        </mxCell>
        <mxCell id="R9ZdVDWzcC7xUmS6zR7n-54" style="edgeStyle=orthogonalEdgeStyle;rounded=0;orthogonalLoop=1;jettySize=auto;html=1;entryX=0;entryY=0.5;entryDx=0;entryDy=0;" parent="1" source="R9ZdVDWzcC7xUmS6zR7n-51" target="R9ZdVDWzcC7xUmS6zR7n-47" edge="1">
          <mxGeometry relative="1" as="geometry" />
        </mxCell>
        <mxCell id="R9ZdVDWzcC7xUmS6zR7n-67" style="edgeStyle=orthogonalEdgeStyle;curved=1;rounded=0;orthogonalLoop=1;jettySize=auto;html=1;exitX=1;exitY=1;exitDx=0;exitDy=0;entryX=0;entryY=0;entryDx=0;entryDy=0;" parent="1" source="R9ZdVDWzcC7xUmS6zR7n-51" target="R9ZdVDWzcC7xUmS6zR7n-49" edge="1">
          <mxGeometry relative="1" as="geometry" />
        </mxCell>
        <mxCell id="R9ZdVDWzcC7xUmS6zR7n-51" value="&lt;b&gt;STATE C&lt;/b&gt;&lt;div&gt;B = GREEN&amp;nbsp;&lt;/div&gt;&lt;div&gt;Rest are RED&lt;/div&gt;" style="ellipse;whiteSpace=wrap;html=1;aspect=fixed;fillColor=#b0e3e6;strokeColor=#0e8088;" parent="1" vertex="1">
          <mxGeometry x="509.9900000000001" y="1576.04" width="100" height="100" as="geometry" />
        </mxCell>
        <mxCell id="R9ZdVDWzcC7xUmS6zR7n-70" style="edgeStyle=orthogonalEdgeStyle;curved=1;rounded=0;orthogonalLoop=1;jettySize=auto;html=1;entryX=0.65;entryY=0;entryDx=0;entryDy=0;entryPerimeter=0;" parent="1" edge="1">
          <mxGeometry relative="1" as="geometry">
            <mxPoint x="722.9900000000001" y="1489.04" as="sourcePoint" />
            <mxPoint x="749.9900000000001" y="1488.04" as="targetPoint" />
            <Array as="points">
              <mxPoint x="711.9900000000001" y="1489.04" />
              <mxPoint x="711.9900000000001" y="1455.04" />
              <mxPoint x="749.9900000000001" y="1455.04" />
            </Array>
          </mxGeometry>
        </mxCell>
        <mxCell id="R9ZdVDWzcC7xUmS6zR7n-72" style="edgeStyle=orthogonalEdgeStyle;curved=1;rounded=0;orthogonalLoop=1;jettySize=auto;html=1;exitX=0;exitY=1;exitDx=0;exitDy=0;entryX=0;entryY=0.5;entryDx=0;entryDy=0;" parent="1" source="R9ZdVDWzcC7xUmS6zR7n-51" target="R9ZdVDWzcC7xUmS6zR7n-51" edge="1">
          <mxGeometry relative="1" as="geometry">
            <Array as="points">
              <mxPoint x="489.9900000000001" y="1661.04" />
              <mxPoint x="489.9900000000001" y="1626.04" />
            </Array>
          </mxGeometry>
        </mxCell>
        <mxCell id="R9ZdVDWzcC7xUmS6zR7n-74" style="edgeStyle=orthogonalEdgeStyle;curved=1;rounded=0;orthogonalLoop=1;jettySize=auto;html=1;exitX=1;exitY=1;exitDx=0;exitDy=0;entryX=1;entryY=0.5;entryDx=0;entryDy=0;" parent="1" source="R9ZdVDWzcC7xUmS6zR7n-47" target="R9ZdVDWzcC7xUmS6zR7n-47" edge="1">
          <mxGeometry relative="1" as="geometry">
            <Array as="points">
              <mxPoint x="989.9900000000001" y="1661.04" />
              <mxPoint x="989.9900000000001" y="1626.04" />
            </Array>
          </mxGeometry>
        </mxCell>
        <mxCell id="0XAeP3CfUMJxeDHche-L-6" value="&lt;font style=&quot;color: rgb(0, 0, 0); font-size: 34px;&quot;&gt;&lt;b style=&quot;&quot;&gt;A&lt;/b&gt;&lt;/font&gt;" style="shape=ext;double=1;rounded=0;whiteSpace=wrap;html=1;" vertex="1" parent="1">
          <mxGeometry x="173" y="1267" width="53" height="56" as="geometry" />
        </mxCell>
        <mxCell id="0XAeP3CfUMJxeDHche-L-9" value="" style="rounded=0;whiteSpace=wrap;html=1;fillColor=#000000;" vertex="1" parent="1">
          <mxGeometry x="1054" y="1348" width="50" height="125" as="geometry" />
        </mxCell>
        <mxCell id="0XAeP3CfUMJxeDHche-L-7" value="" style="ellipse;whiteSpace=wrap;html=1;aspect=fixed;fillColor=light-dark(#39e60a, #ededed);" vertex="1" parent="1">
          <mxGeometry x="1059" y="1368" width="40" height="40" as="geometry" />
        </mxCell>
        <mxCell id="0XAeP3CfUMJxeDHche-L-8" value="" style="ellipse;whiteSpace=wrap;html=1;aspect=fixed;fillColor=#FF0000;strokeColor=#ae4132;" vertex="1" parent="1">
          <mxGeometry x="1059" y="1413" width="40" height="40" as="geometry" />
        </mxCell>
        <mxCell id="0XAeP3CfUMJxeDHche-L-10" value="&lt;b&gt;&lt;font style=&quot;font-size: 14px;&quot;&gt;LIGHT A&lt;/font&gt;&lt;/b&gt;" style="text;html=1;align=center;verticalAlign=middle;whiteSpace=wrap;rounded=0;" vertex="1" parent="1">
          <mxGeometry x="1049" y="1482" width="60" height="30" as="geometry" />
        </mxCell>
        <mxCell id="0XAeP3CfUMJxeDHche-L-11" value="" style="rounded=0;whiteSpace=wrap;html=1;fillColor=#000000;" vertex="1" parent="1">
          <mxGeometry x="1133" y="1348" width="50" height="125" as="geometry" />
        </mxCell>
        <mxCell id="0XAeP3CfUMJxeDHche-L-12" value="" style="ellipse;whiteSpace=wrap;html=1;aspect=fixed;fillColor=light-dark(#39e60a, #ededed);" vertex="1" parent="1">
          <mxGeometry x="1138" y="1368" width="40" height="40" as="geometry" />
        </mxCell>
        <mxCell id="0XAeP3CfUMJxeDHche-L-13" value="" style="ellipse;whiteSpace=wrap;html=1;aspect=fixed;fillColor=#FF0000;strokeColor=#ae4132;" vertex="1" parent="1">
          <mxGeometry x="1138" y="1413" width="40" height="40" as="geometry" />
        </mxCell>
        <mxCell id="0XAeP3CfUMJxeDHche-L-14" value="&lt;b&gt;&lt;font style=&quot;font-size: 14px;&quot;&gt;LIGHT B&lt;/font&gt;&lt;/b&gt;" style="text;html=1;align=center;verticalAlign=middle;whiteSpace=wrap;rounded=0;" vertex="1" parent="1">
          <mxGeometry x="1128" y="1482" width="60" height="30" as="geometry" />
        </mxCell>
        <mxCell id="0XAeP3CfUMJxeDHche-L-15" value="" style="rounded=0;whiteSpace=wrap;html=1;fillColor=#000000;" vertex="1" parent="1">
          <mxGeometry x="1213" y="1348" width="50" height="125" as="geometry" />
        </mxCell>
        <mxCell id="0XAeP3CfUMJxeDHche-L-16" value="" style="ellipse;whiteSpace=wrap;html=1;aspect=fixed;fillColor=light-dark(#39e60a, #ededed);" vertex="1" parent="1">
          <mxGeometry x="1218" y="1368" width="40" height="40" as="geometry" />
        </mxCell>
        <mxCell id="0XAeP3CfUMJxeDHche-L-17" value="" style="ellipse;whiteSpace=wrap;html=1;aspect=fixed;fillColor=#FF0000;strokeColor=#ae4132;" vertex="1" parent="1">
          <mxGeometry x="1218" y="1413" width="40" height="40" as="geometry" />
        </mxCell>
        <mxCell id="0XAeP3CfUMJxeDHche-L-18" value="&lt;b&gt;&lt;font style=&quot;font-size: 14px;&quot;&gt;LIGHT C&lt;/font&gt;&lt;/b&gt;" style="text;html=1;align=center;verticalAlign=middle;whiteSpace=wrap;rounded=0;" vertex="1" parent="1">
          <mxGeometry x="1208" y="1482" width="60" height="30" as="geometry" />
        </mxCell>
        <mxCell id="0XAeP3CfUMJxeDHche-L-19" value="" style="rounded=0;whiteSpace=wrap;html=1;fillColor=#000000;" vertex="1" parent="1">
          <mxGeometry x="1293" y="1348" width="50" height="125" as="geometry" />
        </mxCell>
        <mxCell id="0XAeP3CfUMJxeDHche-L-20" value="" style="ellipse;whiteSpace=wrap;html=1;aspect=fixed;fillColor=light-dark(#39e60a, #ededed);" vertex="1" parent="1">
          <mxGeometry x="1298" y="1368" width="40" height="40" as="geometry" />
        </mxCell>
        <mxCell id="0XAeP3CfUMJxeDHche-L-21" value="" style="ellipse;whiteSpace=wrap;html=1;aspect=fixed;fillColor=#FF0000;strokeColor=#ae4132;" vertex="1" parent="1">
          <mxGeometry x="1298" y="1413" width="40" height="40" as="geometry" />
        </mxCell>
        <mxCell id="0XAeP3CfUMJxeDHche-L-22" value="&lt;b&gt;&lt;font style=&quot;font-size: 14px;&quot;&gt;LIGHT D&lt;/font&gt;&lt;/b&gt;" style="text;html=1;align=center;verticalAlign=middle;whiteSpace=wrap;rounded=0;" vertex="1" parent="1">
          <mxGeometry x="1288" y="1482" width="60" height="30" as="geometry" />
        </mxCell>
        <mxCell id="0XAeP3CfUMJxeDHche-L-32" value="&lt;font style=&quot;color: rgb(0, 0, 0); font-size: 34px;&quot;&gt;&lt;b style=&quot;&quot;&gt;B&lt;/b&gt;&lt;/font&gt;" style="shape=ext;double=1;rounded=0;whiteSpace=wrap;html=1;" vertex="1" parent="1">
          <mxGeometry x="226" y="1267" width="53" height="56" as="geometry" />
        </mxCell>
        <mxCell id="0XAeP3CfUMJxeDHche-L-33" value="&lt;font style=&quot;color: rgb(0, 0, 0); font-size: 34px;&quot;&gt;&lt;b style=&quot;&quot;&gt;C&lt;/b&gt;&lt;/font&gt;" style="shape=ext;double=1;rounded=0;whiteSpace=wrap;html=1;" vertex="1" parent="1">
          <mxGeometry x="279" y="1267" width="53" height="56" as="geometry" />
        </mxCell>
        <mxCell id="0XAeP3CfUMJxeDHche-L-34" value="&lt;font style=&quot;color: rgb(0, 0, 0); font-size: 34px;&quot;&gt;&lt;b style=&quot;&quot;&gt;D&lt;/b&gt;&lt;/font&gt;" style="shape=ext;double=1;rounded=0;whiteSpace=wrap;html=1;" vertex="1" parent="1">
          <mxGeometry x="332" y="1267" width="53" height="56" as="geometry" />
        </mxCell>
        <mxCell id="0XAeP3CfUMJxeDHche-L-36" style="edgeStyle=orthogonalEdgeStyle;rounded=0;orthogonalLoop=1;jettySize=auto;html=1;exitX=1;exitY=0.5;exitDx=0;exitDy=0;entryX=0;entryY=0;entryDx=0;entryDy=25;entryPerimeter=0;" edge="1" parent="1" source="0XAeP3CfUMJxeDHche-L-34" target="R9ZdVDWzcC7xUmS6zR7n-21">
          <mxGeometry relative="1" as="geometry" />
        </mxCell>
        <mxCell id="0XAeP3CfUMJxeDHche-L-37" style="edgeStyle=orthogonalEdgeStyle;rounded=0;orthogonalLoop=1;jettySize=auto;html=1;exitX=1;exitY=0.5;exitDx=0;exitDy=0;entryX=0;entryY=0;entryDx=0;entryDy=75;entryPerimeter=0;" edge="1" parent="1" source="R9ZdVDWzcC7xUmS6zR7n-23" target="R9ZdVDWzcC7xUmS6zR7n-21">
          <mxGeometry relative="1" as="geometry" />
        </mxCell>
        <mxCell id="0XAeP3CfUMJxeDHche-L-39" value="&lt;h1 style=&quot;margin-top: 0px;&quot;&gt;&lt;font face=&quot;Times New Roman&quot; style=&quot;font-size: 32px;&quot;&gt;FOUR-WAY TRAFFIC LIGHT FSM&lt;/font&gt;&lt;/h1&gt;" style="text;html=1;whiteSpace=wrap;overflow=hidden;rounded=0;" vertex="1" parent="1">
          <mxGeometry x="493" y="1160" width="566" height="51" as="geometry" />
        </mxCell>
      </root>
    </mxGraphModel>
  </diagram>
</mxfile>
